# xmcd CD database file
#
# Track frame offsets:
#	150
#	22221
#	43072
#	59043
#	86190
#	112449
#	135036
#	177146
#	200277
#	233035
#
# Disc length: 3478 seconds
#
# Revision: 3
# Processed by: cddbd v1.5.2PL0 Copyright (c) Steve Scherf et al.
# Submitted via: CDex 1.70beta2
#
DISCID=8e0d940a
DTITLE=B.B. KING - O Melhor De B.B. King
DYEAR=2003
DGENRE=Blues
TTITLE0=Every Day I Have The Blues
TTITLE1=Why I Sing The Blues
TTITLE2=Caledonia
TTITLE3=Sweet Little Angel
TTITLE4=Guess Who
TTITLE5=The Thill Is Gone
TTITLE6=B.B's Theme
TTITLE7=Darling You Know I Love You
TTITLE8=All Over Again
TTITLE9=Payn' The Cost To Be Boss
EXTD=ok YEAR: 2003
EXTT0=
EXTT1=
EXTT2=
EXTT3=
EXTT4=
EXTT5=
EXTT6=
EXTT7=
EXTT8=
EXTT9=
PLAYORDER=
